<svg width="46" height="26" viewBox="0 0 46 26" fill="none" xmlns="http://www.w3.org/2000/svg">
<path d="M9.47754 0.000172379C11.2006 0.0488118 15.4365 4.7535 16.708 6.07537C20.8816 5.00802 25.2575 5.01488 29.4277 6.09588C31.3657 4.0384 33.5896 1.45356 36.127 0.163258C37.4779 -0.334342 37.9654 0.791711 38.1719 1.77849C38.8852 5.19332 39.0482 8.63047 39.252 12.0969C39.2734 12.46 39.8957 13.7026 40.0723 14.1095C40.3139 14.6748 40.5298 15.2508 40.7207 15.8351C41.2336 15.666 44.2882 14.8401 44.541 15.3342L44.4629 15.4845C44.1226 15.7415 41.495 16.354 40.8984 16.5178C41.0642 16.8879 41.2418 17.4987 41.3701 17.9015C42.0368 17.7825 43.9962 17.7552 44.7412 17.8547C44.877 17.8728 44.8884 17.9274 44.9414 18.0217C44.6317 18.3113 42.0536 18.5101 41.459 18.6066L41.6064 19.8322C43.5309 19.5587 45.5188 20.1393 45.959 22.2951C45.9727 22.2949 45.9863 22.2943 46 22.2941V23.2678C45.9753 23.2678 45.9505 23.2686 45.9258 23.2687C45.4059 25.248 43.2312 25.7018 41.4746 25.3625C40.3068 25.0454 39.4997 24.462 39.1162 23.2707C35.1927 23.3606 31.0258 23.2875 27.0859 23.2814L6.9541 23.2961C5.89824 26.2431 0.811882 26.1304 0.142578 23.2717C0.0950591 23.2719 0.0475283 23.2705 0 23.2707V22.2853C0.0315759 22.2854 0.0631524 22.2852 0.0947266 22.2853C0.604111 20.114 2.59971 19.5459 4.55859 19.8332C4.63153 19.4386 4.66476 18.9584 4.70312 18.5519C4.02359 18.4807 1.79559 18.3711 1.2959 18.1135L1.2627 18.0031L1.3252 17.9094C1.78385 17.6622 4.22525 17.8252 4.86816 17.8742C4.96318 17.4185 5.08675 16.962 5.2041 16.5109C4.68673 16.3839 1.88377 15.6396 1.67188 15.4465C1.63411 15.2852 1.62689 15.3518 1.71387 15.1935C2.17699 14.9519 4.83465 15.6791 5.43359 15.8254C5.59108 15.165 5.86499 14.4821 6.16211 13.8722C6.44623 13.2891 6.86914 12.6694 6.98047 12.0246C7.15631 11.0058 7.09505 9.87066 7.14258 8.83318C7.2238 7.06073 7.58767 2.00379 8.43652 0.677907C8.68811 0.285183 8.96174 0.101199 9.41309 0.00114894C9.43437 0.000617588 9.45626 -0.000407384 9.47754 0.000172379ZM5.91602 22.2804C5.57722 21.0312 4.09824 20.6278 2.95215 20.7492C-0.508119 21.8742 1.24388 24.9629 4.06055 24.3849C4.73327 24.2142 5.36831 24.0401 5.76074 23.3908C5.96479 23.0586 6.0212 22.6558 5.91602 22.2804ZM42.2744 20.6955C41.9442 20.7726 41.703 20.8282 41.3818 20.9621C40.0414 21.5207 39.5176 23.2298 40.9287 24.0539C41.4383 24.3513 42.243 24.5042 42.8408 24.4211C43.5567 24.307 44.2761 24.1784 44.7402 23.5431C44.9829 23.2161 45.0781 22.8027 45.0049 22.4025C44.7986 21.2585 43.3325 20.574 42.2744 20.6955ZM36.7256 1.16912C34.923 1.77856 32.4671 4.59318 31.1162 5.95818C29.6734 7.41608 30.4806 7.43074 28.2783 6.95232C26.6472 6.61362 24.9892 6.41605 23.3242 6.3615C21.838 6.3268 19.941 6.57312 18.4678 6.83318C17.8005 6.95103 17.0444 7.20307 16.3779 7.29705C15.841 6.92847 15.0233 5.95833 14.5439 5.47478C13.6266 4.54952 10.5912 1.3277 9.49902 1.20232C8.54806 2.14575 8.33375 8.23085 8.16895 9.86443C8.1072 10.4758 8.21492 11.5651 8.07227 12.2248C7.53663 13.4863 6.89871 14.7623 6.44824 16.0754C7.03961 16.2347 8.65663 16.6321 9.0625 16.9738L9.125 17.1017C8.92394 17.5283 8.25947 17.269 7.89844 17.176C7.34244 17.0328 6.78766 16.8837 6.23145 16.7404C6.09037 17.1816 6.0229 17.4859 5.92969 17.9416C6.43544 17.9928 8.5566 18.156 8.77246 18.5539C8.72992 18.7005 8.6743 18.7784 8.5 18.7931C7.62059 18.8671 6.67244 18.6713 5.79492 18.6437C5.71953 19.1686 5.6495 19.7357 5.55957 20.2551C6.33974 20.8282 6.75252 21.2336 6.95898 22.2277L22.5742 22.2355C22.5711 21.9289 22.5676 21.7086 22.6016 21.4006C21.6005 20.9356 19.9705 19.7191 21.915 18.9054C22.5286 18.6488 23.9322 18.7159 24.5342 19.0187C25.9063 19.95 24.3536 21.031 23.5693 21.3781L23.5654 22.2326L36.7676 22.2297C37.5413 22.2276 38.326 22.2323 39.0986 22.2219C39.3329 21.2984 39.7307 20.7803 40.5322 20.2502C40.4991 19.7789 40.4579 19.1513 40.335 18.6926C39.8393 18.7264 37.9463 18.9074 37.5938 18.7511L37.5039 18.631C37.5753 18.281 38.3556 18.2179 38.6719 18.1799C39.1643 18.1206 39.7196 18.0119 40.21 17.9894C40.0956 17.5903 39.9865 17.1893 39.8828 16.7873C39.3582 16.929 37.6193 17.4732 37.1523 17.3224C37.0471 17.1535 37.0603 17.2224 37.0635 17.049C37.3366 16.6782 39.1972 16.2399 39.6973 16.1496C39.3 15.0409 38.8829 13.9767 38.3418 12.9269C37.8975 12.065 38.0549 10.9323 38.0078 9.96697C37.9051 8.10443 37.7353 6.24603 37.499 4.39568C37.3643 3.36467 37.2634 2.05977 36.7256 1.16912ZM14.4707 14.5256C15.181 14.3579 15.9267 14.5851 16.4229 15.1203C16.919 15.6556 17.0892 16.4169 16.8682 17.1125C16.6471 17.8079 16.0685 18.3309 15.3545 18.4816C14.2687 18.7106 13.2001 18.0236 12.958 16.9406C12.7159 15.8575 13.3906 14.7806 14.4707 14.5256ZM30.874 14.5051C31.9696 14.3484 32.9852 15.1081 33.1445 16.2033C33.3038 17.2985 32.5465 18.3157 31.4521 18.4777C30.3538 18.64 29.3317 17.8801 29.1719 16.7814C29.0121 15.6826 29.7746 14.6624 30.874 14.5051Z" fill="#2B2420"/>
</svg>
