<svg width="29" height="20" viewBox="0 0 29 20" fill="none" xmlns="http://www.w3.org/2000/svg">
<path fill-rule="evenodd" clip-rule="evenodd" d="M20.5302 0.313039C20.825 -0.0493929 21.3731 0.0269079 21.6206 0.418536C21.8224 0.738251 22.4033 2.103 22.3501 2.42793C22.2557 2.4051 22.1916 2.39181 22.096 2.37696C22.0945 2.52009 22.0754 2.45346 22.172 2.5786C22.286 2.60825 22.459 2.64082 22.5179 2.73218C22.6958 3.00878 23.3017 4.3784 23.277 4.60989C23.1608 4.68305 23.1945 4.6462 23.1191 4.75401L23.1606 4.81116C23.2525 4.80372 23.2837 4.8049 23.376 4.81056C23.4471 4.97115 23.6938 5.4709 23.6829 5.60371C23.5402 5.59163 23.5224 5.56692 23.4101 5.61844C23.5147 5.98777 23.8203 5.79752 23.9844 6.19339C23.9522 6.36007 23.9602 6.3094 23.8094 6.45192L23.8126 6.5416C24.2925 6.8251 24.4652 7.36808 24.5693 7.90881C24.5763 7.94467 24.4738 8.00534 24.4963 8.17792L24.6627 8.14678C24.8047 8.21959 25.0569 8.78869 24.9928 8.93204L24.8205 8.90948L24.7826 8.95073C24.8494 9.07762 24.8995 9.05465 25.0849 9.12044C25.2035 9.26904 25.4799 10.1587 25.524 10.4023C25.5919 10.7767 25.841 10.6743 25.9748 11.2208C25.9292 11.3968 25.916 11.3644 25.7645 11.5149L25.802 11.5697C25.8949 11.5423 25.8608 11.5553 25.9474 11.5199L26.0064 11.4956C26.2005 11.621 26.2533 12.189 26.3274 12.4173C26.5257 13.0247 27.1621 13.3529 26.7388 13.9948C26.9259 14.2184 26.7581 13.888 27.0404 14.0692C27.3285 14.7283 27.9729 16.0671 28.1266 16.7932C28.1577 16.942 27.9953 16.9427 27.9441 17.0896C28.1438 17.2814 28.0699 17.0776 28.3153 17.227C28.7588 18.2154 29.8558 19.9575 27.7175 19.6618C27.6261 19.649 27.2544 19.6878 27.1153 19.6874C26.9992 19.5856 27.0358 19.6028 27.0046 19.407C26.6522 19.8789 26.2951 19.7032 25.7442 19.6968C24.9151 19.6873 24.0861 19.6857 23.2568 19.6904C23.0921 19.5191 23.0436 19.4493 22.7891 19.4879C22.6217 19.6075 22.4163 19.796 22.2037 19.7116L22.2697 19.5065L22.2092 19.476C22.1187 19.5643 22.0637 19.629 21.9821 19.7243C21.6967 19.7985 20.7834 19.7754 20.4468 19.7738C20.3234 19.7731 19.9959 19.6536 19.7857 19.6479L19.6569 19.7798L19.5573 19.741L19.5308 19.5838L19.4129 19.7372C19.1305 19.7878 15.4857 19.7943 15.4131 19.7682C15.0063 19.6231 14.3816 19.7905 13.9276 19.8137C13.3688 19.8418 12.8186 19.7961 12.2611 19.7999C11.7168 19.8038 10.9677 19.9542 10.4516 19.7851C10.3429 19.6568 10.3343 19.6316 10.2835 19.4713L10.2559 19.4976C10.2615 19.6313 10.2661 19.6425 10.2385 19.7713C9.98673 19.8344 8.82248 19.878 8.60552 19.7919C8.60394 19.7309 8.60206 19.6698 8.60045 19.6093L8.51027 19.6013L8.50315 19.7657L8.4244 19.8278C8.09293 19.8425 7.38781 19.9006 7.07159 19.8026C7.0283 19.7893 7.00402 19.6693 6.84687 19.62C6.76256 19.7158 6.73447 19.7427 6.63671 19.8258C6.47829 19.8469 6.54623 19.8661 6.41827 19.806C6.49405 19.6409 6.5107 19.6938 6.47144 19.5808L6.35795 19.5876L6.28937 19.7751C6.09645 19.8985 1.45647 19.8608 0.726784 19.8922L0.331989 19.6778L0.312245 19.6221L0.281959 19.5371C0.221616 19.3758 0.1592 19.2139 0.227523 19.0398C0.591061 18.1151 1.09226 17.2465 1.50446 16.3421C1.6038 16.1244 1.85922 15.8692 1.95905 15.6497C2.09631 15.3481 2.21332 15.0424 2.35467 14.7418L3.5271 12.3068C3.68976 11.9627 3.86376 11.9878 4.03096 11.6901C3.96887 11.1931 4.5363 10.5833 4.64649 10.143C4.77407 9.6332 5.12292 9.59877 5.20611 9.41833C4.92002 8.91321 5.44833 8.75368 5.65044 8.31481C5.77306 8.04821 5.80715 7.745 5.96569 7.49731C6.05975 7.35074 6.13065 7.46288 6.28471 7.3213C6.21456 7.20621 6.21125 7.21403 6.20115 7.08217C6.45985 6.5876 7.37637 4.48674 7.70598 4.24189C7.78839 4.18064 7.74834 4.19485 7.85353 4.20713L7.91455 4.36242L7.9512 4.35824C7.99049 4.22214 8.00441 4.15008 8.07684 4.02494L8.30761 4.01533L8.50287 4.11919C8.7531 4.3333 10.7339 6.51247 10.8137 6.72669L10.6893 6.82372C10.753 6.93214 10.7076 6.89503 10.8221 6.94011L10.8786 6.80372C11.0995 6.86886 11.6093 7.50075 11.6396 7.73245C11.6501 7.81328 11.5908 7.83678 11.5332 7.89707C11.5636 8.04871 11.6862 8.20634 11.8308 8.26705C11.8719 8.19608 11.9039 8.12454 11.9331 8.04813C12.4977 8.43331 13.989 10.2526 14.3464 10.8629C14.487 10.5627 14.6048 10.3134 14.855 10.0857C14.9805 10.0198 14.9611 9.52795 15.0447 9.46038C15.6459 8.97596 15.8146 8.26233 16.1981 7.62024C16.3887 7.28958 16.6375 6.97904 16.824 6.64717C17.4978 5.44807 18.1574 4.27877 18.903 3.11987C19.4535 2.21613 19.8657 1.1306 20.5302 0.313039ZM20.9104 2.19173C19.73 4.24155 18.5129 6.27561 17.3457 8.33259C17.3118 8.38394 17.2475 8.43513 17.1914 8.4651C16.9354 8.60138 16.7753 9.53139 16.6287 9.68991C16.3329 10.0111 15.6666 11.3171 15.4327 11.51C15.3235 11.4635 15.374 11.4866 15.2788 11.4407C15.2466 11.7219 15.2625 12.1045 15.0418 12.2696C14.9094 12.3685 14.5515 12.5138 14.4154 12.4675C13.6218 12.1943 12.543 10.3407 11.9155 9.89039C11.7861 9.98969 11.5891 10.1667 11.4398 10.1968C11.3228 10.1392 11.3296 10.1139 11.2665 9.99397C11.2566 9.74394 11.5382 9.49361 11.452 9.38447C10.6425 8.36427 9.66761 7.36576 8.83341 6.35181C8.65374 6.13345 8.50345 6.09283 8.25984 5.77177C8.00246 6.35737 8.01479 6.50088 7.53367 6.96753C7.62665 7.08143 7.60046 7.01956 7.62363 7.15822C7.31854 8.05836 6.46785 9.01605 6.21032 9.98588C6.17628 10.1142 5.72551 10.3735 5.79071 10.498C5.83152 10.6028 5.86093 10.7279 5.79776 10.8429C5.06065 12.1832 4.37077 13.5318 3.7293 14.92C3.67407 15.0389 3.52124 15.0954 3.40183 15.158C3.44194 15.2686 3.41927 15.229 3.51116 15.3134C3.4558 15.6672 3.2685 15.9058 3.05048 16.1573C2.82979 16.4119 2.13221 18.2217 1.9402 18.3891C1.85005 18.3407 1.85697 18.3415 1.77668 18.2786L1.75 18.351C1.94658 18.5646 1.99239 18.5762 2.2714 18.5882C3.22758 18.6298 4.15327 18.5959 5.11057 18.6268C5.26184 18.827 4.99802 18.6969 5.21773 18.8434L5.34246 18.8261L5.34657 18.7695L5.23874 18.6568C5.48293 18.5355 5.72368 18.6616 6.00596 18.5211C6.58829 18.5133 7.66004 18.472 8.16997 18.65L8.24763 18.6769C8.82183 18.5705 9.81296 18.3993 10.382 18.5468C10.5404 18.7451 10.3361 18.7574 10.4943 18.8638L10.5488 18.8405C10.5527 18.7484 10.5586 18.6567 10.5673 18.5652C10.621 18.5373 13.3412 18.4814 13.6328 18.4836C13.7407 18.5507 13.7404 18.5477 13.8243 18.6415L13.8616 18.6209C14.4207 18.3089 14.4598 18.5204 15.0735 18.4965C16.2738 18.4504 17.4744 18.4569 18.6756 18.475C18.8626 18.6234 18.79 18.6189 19.0135 18.5945C19.3028 18.5633 19.6581 18.4206 19.9439 18.4194C20.3714 18.4173 20.9152 18.5179 21.3203 18.5563C21.415 18.5653 21.7563 18.37 22.0874 18.4682L22.1919 18.5857C22.5054 18.5462 22.5565 18.4169 22.9104 18.4177C23.3733 18.4142 23.8359 18.378 24.2989 18.3745C24.459 18.3734 24.6385 18.4891 24.7871 18.4761C25.3811 18.4248 25.9545 18.3686 26.5535 18.3858C26.8811 18.3955 27.1744 18.3843 27.5026 18.4317C26.6238 16.6068 25.9878 14.6917 25.1949 12.8322C25.0535 12.5013 24.838 12.2075 24.8289 11.8356C24.8132 11.5664 24.5734 11.2531 24.491 10.9972C24.1996 10.2684 23.8491 9.59707 23.6478 8.8318C23.3934 9.13519 22.3805 10.1558 21.9875 9.79417C21.8611 9.23031 23.0082 8.50136 23.4678 8.33955C23.0148 7.73644 22.8916 6.70548 22.6118 6.21817C22.2357 5.56332 21.2806 2.52994 20.9104 2.19173Z" fill="#2B2420"/>
<path d="M9.32617 10.4941C10.2857 11.0671 8.91775 11.6945 8.43334 11.9657C8.23176 11.8388 8.16429 11.8025 8.114 11.5804C8.22419 11.214 8.97579 10.7345 9.32617 10.4941Z" fill="#2B2420"/>
<path d="M19.8135 10.1215L19.865 10.1097L19.9123 10.1477C19.6861 10.4387 19.7247 10.5032 19.6046 10.6915C19.4809 10.8854 18.8016 10.8842 18.541 10.898C18.3631 10.7086 18.2886 10.5649 18.4324 10.3334C18.7734 10.1208 19.3907 10.1436 19.8135 10.1215Z" fill="#2B2420"/>
<path d="M18.4294 18.7989L18.4571 18.8369C18.4297 18.9652 18.2422 19.1324 18.1372 19.2489L18.0999 19.1922C18.1314 19.046 18.3118 18.9103 18.4294 18.7989Z" fill="#2B2420"/>
</svg>
