<svg width="155" height="154" viewBox="0 0 155 154" fill="none" xmlns="http://www.w3.org/2000/svg">
<path d="M76.6146 7.06879C115.182 6.87304 146.605 37.9819 146.795 76.5493C146.986 115.116 115.872 146.535 77.3041 146.72C38.7442 146.906 7.33348 115.799 7.14296 77.2397C6.95249 38.6795 38.0549 7.26448 76.6146 7.06879ZM88.3275 9.21625C83.9272 8.53253 79.4731 8.2603 75.0238 8.40375C60.2676 8.82177 46.0396 13.9859 34.4506 23.1293C19.6828 34.7374 10.3329 52.0222 8.64198 70.7319C8.54055 71.8547 8.72192 71.5948 7.94862 72.0336C7.8963 72.3805 7.84443 72.26 7.97987 72.4819L8.35683 72.3754C8.54702 72.6131 8.46526 73.5804 8.45155 73.9145C8.24479 78.9327 8.47068 83.9413 9.32558 88.8998C14.7055 118.676 38.9267 141.43 68.9799 144.939C72.8547 145.368 76.7567 145.499 80.6508 145.331C84.4416 145.055 88.0706 144.694 91.7973 143.88C106.219 140.626 119.227 132.857 128.931 121.703C140.759 108.142 146.719 90.4399 145.499 72.4868C145.127 67.4668 144.475 63.6406 143.141 58.7954C143.036 58.4164 142.386 56.3047 142.539 56.0932C142.801 56.3338 142.983 56.5188 143.226 56.7788L143.282 56.6928C142.951 55.4475 142.256 56.2821 142.027 55.061L142.148 54.9018C142.326 54.8776 142.439 54.8405 142.603 54.7651L142.478 54.8579L142.605 54.7641C142.592 54.7171 142.465 54.602 142.421 54.5571C142.293 54.5432 141.974 54.5572 141.915 54.4438C140.828 52.316 140.155 49.7095 139.078 47.6059C138.085 45.6696 136.848 43.1891 135.71 41.3364C126.62 26.5349 112.298 15.6903 95.5863 10.9536C92.725 10.141 91.3195 9.69732 88.3275 9.21625Z" fill="black"/>
<path d="M85.9284 55.7795C86.4759 54.8426 87.7513 54.8348 88.4489 55.6564C89.0184 56.3276 90.8071 59.2841 90.7975 60.0529C90.5745 60.032 90.4239 60.0237 90.2009 60.0217C90.2466 60.3529 90.1801 60.2054 90.4431 60.4621C90.7129 60.4921 91.1184 60.5082 91.2839 60.6994C91.7834 61.2781 93.6331 64.2391 93.6559 64.7824C93.4159 64.991 93.4803 64.8942 93.3454 65.1691L93.4597 65.2873C93.6661 65.2392 93.7369 65.2301 93.9489 65.2121C94.1655 65.5585 94.8996 66.6306 94.9206 66.9416C94.5914 66.9619 94.5424 66.9108 94.3044 67.0676C94.669 67.886 95.2999 67.3429 95.8093 68.2023C95.7929 68.5989 95.7936 68.4782 95.4987 68.8586L95.5358 69.0656C96.7265 69.5588 97.3069 70.7551 97.7292 71.9699C97.7573 72.0505 97.5441 72.2248 97.655 72.6164L98.0222 72.4885C98.3706 72.6088 99.1395 73.8378 99.0427 74.1906L98.6433 74.1975L98.57 74.3039C98.7659 74.5756 98.872 74.5054 99.3171 74.5949C99.6381 74.8982 100.572 76.8598 100.757 77.4084C101.039 78.2507 101.572 77.9299 102.064 79.1486C102.021 79.5709 101.978 79.4994 101.684 79.8986L101.79 80.0129C101.992 79.9182 101.918 79.9598 102.103 79.8488L102.229 79.7726C102.715 79.9969 103.03 81.2934 103.277 81.7951C103.937 83.1312 105.498 83.6734 104.754 85.299C105.256 85.7529 104.76 85.0471 105.466 85.3703C106.347 86.7961 108.272 89.671 108.871 91.2971C108.994 91.6312 108.624 91.6871 108.557 92.0441C109.079 92.4207 108.839 91.9743 109.451 92.2375C110.799 94.3718 113.893 98.0265 108.922 98.0646C108.709 98.066 107.875 98.2807 107.558 98.3264C107.259 98.1305 107.348 98.1587 107.21 97.717C106.569 98.9257 105.696 98.6409 104.439 98.8117C102.548 99.0696 100.659 99.3454 98.7722 99.6359C98.3379 99.2953 98.2025 99.1502 97.6354 99.3254C97.2948 99.6584 96.8922 100.163 96.3786 100.039L96.4597 99.5441L96.3112 99.4934C96.135 99.7284 96.032 99.8966 95.8786 100.145C95.2537 100.412 93.1664 100.668 92.3991 100.778C92.1181 100.818 91.3312 100.651 90.8503 100.709L90.6013 101.056L90.362 101.001L90.2477 100.646L90.0309 101.04C89.4055 101.252 81.1158 102.496 80.9313 102.462C79.9551 102.264 78.5895 102.861 77.5632 103.068C76.2997 103.321 75.0303 103.403 73.7614 103.6C72.5229 103.793 70.8685 104.391 69.6354 104.174C69.3439 103.914 69.3158 103.86 69.1452 103.506L69.0915 103.575C69.1501 103.883 69.1642 103.907 69.1452 104.215C68.5933 104.446 65.9549 104.939 65.4323 104.813C65.4078 104.672 65.3834 104.532 65.3591 104.393L65.1491 104.405L65.1911 104.787L65.0309 104.956C64.2808 105.102 62.6958 105.475 61.9421 105.356C61.839 105.339 61.7432 105.07 61.3688 105.009C61.2092 105.259 61.1543 105.332 60.9597 105.557C60.6064 105.659 60.7683 105.679 60.4567 105.583C60.5727 105.177 60.6286 105.293 60.5007 105.045L60.2438 105.101L60.152 105.555C59.7662 105.904 49.1748 107.383 47.5212 107.702L46.5485 107.34L46.4831 107.218L46.3864 107.032C46.1937 106.68 45.9952 106.327 46.0915 105.902C46.6031 103.642 47.4484 101.466 48.0778 99.2375C48.2297 98.7009 48.7225 98.0245 48.8747 97.4836C49.0841 96.7403 49.2465 95.9962 49.4655 95.2541L51.3024 89.2307C51.5552 88.3806 51.961 88.3804 52.2399 87.6359C51.9282 86.5084 53.0119 84.9073 53.112 83.8527C53.2282 82.6317 54.0108 82.4346 54.1384 81.9894C53.3138 80.9186 54.4644 80.3721 54.7741 79.2892C54.9622 78.6319 54.9363 77.9209 55.2126 77.2951C55.3767 76.9248 55.5761 77.1596 55.8786 76.7805C55.6794 76.5382 55.6733 76.5583 55.6052 76.257C56.0248 75.0288 57.3941 69.8629 58.0612 69.1857C58.2286 69.0158 58.1419 69.0621 58.3864 69.0549L58.5778 69.3937L58.6599 69.3723C58.7028 69.0442 58.7096 68.8733 58.8317 68.5598L59.3542 68.4592L59.8347 68.632C60.4769 69.0415 65.7367 73.41 65.9919 73.8781L65.7409 74.1457C65.9227 74.3745 65.8074 74.3027 66.0837 74.3684L66.1657 74.0353C66.6913 74.1116 68.0676 75.3977 68.2165 75.923C68.2684 76.1066 68.1417 76.1812 68.0309 76.34C68.152 76.6802 68.4846 77.0044 68.8347 77.0959C68.9041 76.9177 68.9524 76.7407 68.9929 76.5539C70.4104 77.253 74.4296 80.9545 75.4528 82.2443C75.6705 81.5032 75.8545 80.8881 76.3464 80.2775C76.6098 80.0827 76.3956 78.9507 76.5632 78.7668C77.7668 77.4445 77.9072 75.7394 78.5612 74.1262C78.8823 73.2978 79.3417 72.4969 79.653 71.6672C80.7773 68.669 81.8816 65.7451 83.1833 62.8156C84.128 60.5414 84.6942 57.893 85.9284 55.7795ZM87.4382 59.9934C85.4509 65.1282 83.3743 70.239 81.4196 75.3859C81.3598 75.5161 81.2315 75.6571 81.114 75.7453C80.5774 76.1466 80.5304 78.3481 80.2507 78.7639C79.6869 79.6054 78.617 82.8496 78.1501 83.3742C77.8846 83.3035 78.0086 83.3387 77.7761 83.2648C77.7989 83.9253 77.9651 84.8038 77.5192 85.26C77.2516 85.533 76.4856 85.9904 76.1599 85.9289C74.2585 85.5654 71.1661 81.6458 69.5827 80.8176C69.3218 81.0908 68.934 81.5661 68.6042 81.6857C68.3183 81.5922 68.3252 81.5322 68.1403 81.2766C68.0319 80.7019 68.5881 80.028 68.3542 79.8049C66.1611 77.7207 63.5993 75.7423 61.3522 73.6809C60.8683 73.237 60.5129 73.1938 59.8483 72.5344C59.4624 73.9745 59.5388 74.3022 58.6022 75.5432C58.8529 75.7749 58.7716 75.6401 58.8718 75.9523C58.4848 78.1354 56.8753 80.636 56.6208 82.9641C56.5865 83.2723 55.6497 84.0218 55.8405 84.2873C55.9695 84.5159 56.0791 84.7959 55.9743 85.0832C54.7541 88.4288 53.6439 91.7765 52.6579 95.2004C52.5732 95.4941 52.2455 95.6756 51.9948 95.8605C52.1242 96.1031 52.0585 96.0189 52.2966 96.1828C52.2918 97.0198 51.9457 97.635 51.5349 98.2902C51.1192 98.9537 50.1512 103.369 49.7712 103.82C49.5486 103.739 49.5642 103.74 49.3591 103.621L49.3239 103.796C49.8452 104.224 49.9528 104.235 50.5925 104.168C52.7849 103.942 54.8826 103.552 57.0739 103.301C57.4869 103.712 56.8407 103.5 57.3913 103.765L57.6696 103.683L57.6599 103.55L57.3747 103.327C57.8895 102.964 58.4808 103.175 59.0759 102.755C60.3997 102.541 62.8281 102.083 64.0505 102.322L64.237 102.359C65.5086 101.919 67.7068 101.189 69.0534 101.338C69.4821 101.743 69.0204 101.84 69.4177 102.032L69.5329 101.959C69.5104 101.745 69.4937 101.531 69.4821 101.317C69.5982 101.233 75.7767 100.186 76.4372 100.094C76.7058 100.212 76.7024 100.207 76.9255 100.396L77.0036 100.334C78.1703 99.4244 78.3318 99.901 79.7214 99.6389C82.4402 99.1273 85.1779 98.7377 87.9206 98.3742C88.3971 98.6538 88.2297 98.668 88.7302 98.5363C89.3788 98.3665 90.1399 97.9166 90.7907 97.8176C91.7637 97.6685 93.0364 97.717 93.9724 97.6691C94.1916 97.6575 94.9018 97.0911 95.6891 97.2062L95.9665 97.4426C96.6674 97.2456 96.7401 96.9302 97.5466 96.8127C98.6 96.6483 99.6416 96.4087 100.695 96.2443C101.059 96.1878 101.507 96.3939 101.841 96.3137C103.177 95.9948 104.463 95.6712 105.833 95.509C106.583 95.4208 107.247 95.2962 108.011 95.2951C105.385 91.3748 103.282 87.1651 100.84 83.1359C100.404 82.4187 99.8118 81.8128 99.6638 80.9562C99.5362 80.3394 98.8815 79.6965 98.6061 79.133C97.693 77.5472 96.6665 76.1146 95.946 74.4142C95.4703 75.2013 93.5116 77.9003 92.4929 77.1975C92.0118 75.9372 94.3743 73.8661 95.3659 73.3371C94.1275 72.0961 93.4953 69.7542 92.6911 68.7228C91.6103 67.3366 88.397 60.65 87.4382 59.9934Z" fill="black"/>
<path d="M63.8923 83.0854C66.274 84.0857 63.3728 85.9969 62.3622 86.787C61.8596 86.5617 61.6935 86.5008 61.5029 86.0045C61.6285 85.1207 63.1764 83.7592 63.8923 83.0854Z" fill="black"/>
<path d="M87.653 78.6862L87.7662 78.6416L87.887 78.7134C87.4713 79.4622 87.5812 79.5983 87.3722 80.0739C87.1567 80.5637 85.6091 80.7901 85.0203 80.9098C84.5501 80.5321 84.3313 80.2252 84.5795 79.6418C85.2836 79.0356 86.6974 78.88 87.653 78.6862Z" fill="black"/>
<path d="M87.47 99.2046L87.5462 99.283C87.5277 99.5888 87.1577 100.038 86.9585 100.343L86.854 100.224C86.8758 99.8761 87.2404 99.5017 87.47 99.2046Z" fill="black"/>
<path d="M91.6499 129.832C93.3499 129.759 94.0577 130.622 94.9273 131.919C96.1626 133.763 96.189 135.182 96.1988 137.31C95.7471 137.727 95.77 137.58 95.6558 138.079L95.7261 138.08C95.3049 139.361 94.433 139.735 93.1792 140.035C90.39 139.972 89.5113 137.784 88.7027 135.516C87.6266 132.496 88.777 130.713 91.6499 129.832ZM92.27 131.3C91.9904 131.309 91.7106 131.331 91.4331 131.368C90.8138 131.538 90.2588 131.688 89.9409 132.287C89.1161 133.837 89.9153 136.164 90.5738 137.602C91.5271 138.125 92.4502 138.722 93.5406 138.8C94.2023 138.414 94.8083 137.938 95.3394 137.385C95.3557 135.682 94.5021 131.233 92.27 131.3Z" fill="black"/>
<path d="M60.4844 129.715C63.1212 129.688 68.1103 131.731 65.1699 135.101C63.9755 136.469 61.5181 134.856 60.6807 135.543C60.2929 136.32 60.1915 137.338 60.1123 138.196C60.2795 138.489 60.6833 138.626 61.042 138.921C61.1662 139.244 61.1722 139.087 61.0908 139.399C60.4495 139.717 58.0367 139.317 57.6201 138.665L57.7285 138.489C58.2738 138.168 58.5305 138.155 59.1445 138.033C59.5736 136.679 59.8803 134.57 60.1953 133.117C60.4605 132.868 60.465 132.881 60.6396 132.568L60.4658 132.419C60.3877 132.045 60.7891 131.357 60.9717 130.965C60.5242 130.46 60.1134 130.416 59.8486 130.037L60.0381 129.732C60.1865 129.72 60.3355 129.715 60.4844 129.715ZM61.7861 131.084C61.3585 131.555 61.0122 133.48 61.4023 134.025C61.9143 134.739 63.5051 134.675 64.3037 134.609C65.404 133.948 65.0389 132.372 64.2139 131.584C63.2959 131.313 62.7504 131.129 61.7861 131.084Z" fill="black"/>
<path d="M112.862 119.448C113.127 119.578 113.012 119.492 113.177 119.746C113.152 120.123 112.882 120.422 112.657 120.743C113.952 122.335 115.003 123.811 116.044 125.581C116.483 126.329 118.019 126.597 117.291 128.021C116.247 128.637 111.331 124.566 110.003 124.538L109.948 124.709C110.394 125.723 112.196 127.644 112.785 128.702C113.35 129.719 114.421 128.996 114.894 129.367C114.711 129.876 112.603 131.781 112.061 131.481C111.897 130.474 112.571 130.508 112.64 129.867C111.967 128.683 109.299 125.298 108.256 124.329C107.694 124.348 106.405 124.761 106.706 123.493C108.967 120.827 111.327 124.607 113.527 125.399C114.085 125.6 114.168 125.754 114.577 126.219C115.181 126.343 115.548 126.504 116.117 126.725C115.155 125.258 113.038 122.365 111.73 121.3C111.107 121.32 111.477 121.712 110.73 121.867C110.389 121.733 110.282 121.472 110.075 121.154C110.989 120.277 111.751 119.985 112.862 119.448Z" fill="black"/>
<path d="M49.1736 125.19C50.4231 125.205 53.9969 127.038 55.5322 127.55C55.7003 127.94 55.7771 128.253 55.8915 128.664C55.5887 129.45 55.4962 130.658 54.8987 131.054C54.5479 131.016 54.7099 131.08 54.4229 130.802C54.2107 130.138 54.8646 129.228 55.2133 128.507C53.7422 128.114 52.8942 127.582 51.623 126.834C50.6478 126.261 49.8022 128.712 49.3799 129.496C49.9143 129.811 50.3345 130.1 50.9292 130.278C51.3786 130.167 51.7305 129.58 52.2136 129.12L52.407 129.128L52.587 129.401C52.6269 130.126 51.8026 131.038 51.6731 131.809C51.5868 132.323 51.286 132.886 50.7451 132.998L50.5862 132.826C50.5192 132.459 50.6587 132.277 50.8201 131.926L50.8899 131.777C50.5638 131.531 50.2386 131.326 49.8964 131.104C49.509 130.959 49.3799 130.868 49.0489 130.967C48.6422 131.629 47.9036 132.711 47.7804 133.449C48.0557 134.207 50.6592 135.368 51.5441 135.276C52.3325 135.193 52.4585 134.043 52.9101 133.43C53.2754 133.235 53.1032 133.24 53.4347 133.321C54.1702 134.327 52.654 135.93 51.9233 136.55C50.8853 136.073 45.501 134.475 45.6505 133.499C46.3362 132.711 46.6775 133.957 47.6737 131.615C48.4542 129.78 49.3848 128.561 49.9822 126.483C49.384 125.99 49.1687 125.982 49.1736 125.19Z" fill="black"/>
<path d="M39.7224 118.443C40.6342 118.578 45.0152 121.75 45.628 122.707C45.8788 123.099 44.4748 125.283 44.0627 125.529L43.9106 125.479C43.5528 124.626 44.2981 123.664 44.7388 122.998C43.4305 122.129 42.4997 121.201 41.0095 120.302C40.1621 121.14 39.8238 121.876 39.2667 122.92C39.8349 123.494 40.1794 123.667 40.8865 123.991C41.1735 123.609 41.4548 123.073 41.9393 123.039L42.0608 123.227C41.9357 123.974 40.4808 126.174 39.8404 126.548L39.6958 126.437C39.6597 126.01 39.8713 125.697 40.0635 125.308C39.532 124.392 39.5267 124.37 38.5322 124.032L38.3566 124.039C38.0299 124.201 36.9001 126 36.5833 126.452C37.4569 127.233 39.0264 128.917 40.2967 128.866C41.2925 128.826 41.3425 126.316 42.53 127.566C42.6666 128.412 40.8071 129.776 40.1429 130.215C39.1343 129.482 34.631 126.94 34.4678 126.028C34.8385 125.688 36.0833 125.912 36.367 125.407C37.3664 123.629 39.4124 121.782 40.2344 120.004C39.855 119.38 39.5917 119.113 39.7224 118.443Z" fill="black"/>
<path d="M31.967 110.419C33.1574 110.49 35.0837 112.065 34.6857 113.158C33.8393 113.601 33.8184 112.992 33.0538 112.88C32.4986 112.8 31.2508 114.303 31.1759 114.75L31.3193 114.872C32.1426 114.776 34.2842 114.886 34.9294 114.544C35.037 114.487 34.876 114.009 35.2767 113.639C36.0829 113.62 37.7401 115.353 37.2722 116.154C36.9555 116.141 35.9966 115.624 35.4424 115.446L35.3023 115.401C34.4219 115.794 33.3547 115.893 32.3733 116.169C31.6003 117.737 31.429 119.047 30.4172 120.887C30.685 121.468 30.8767 121.817 30.9693 122.449C30.3349 122.325 28.9124 120.847 28.7109 120.23L28.8185 120.03C29.3032 119.95 29.2881 120.171 29.8967 120.283C30.3835 119.377 31.5893 116.87 30.9824 115.964C29.8837 115.437 28.5277 117.101 27.8273 117.814C28.0363 118.268 28.2965 118.668 28.0527 119.138L27.7985 119.15C27.2388 118.903 25.6513 117.807 25.8595 117.116C26.3715 116.782 27.4076 117.179 27.8767 116.702C28.4038 116.157 28.8838 115.54 29.4199 115.007C30.5381 113.897 31.7199 113.132 32.4898 111.725C32.1147 111.224 31.8298 111.033 31.967 110.419Z" fill="black"/>
<path d="M79.7097 131.696C80.55 131.665 80.8972 131.827 81.6776 132.103C82.0509 131.94 82.41 131.691 82.7202 131.789C83.1893 132.393 83.543 134.838 82.8737 135.39L82.6527 135.34C82.1423 134.838 82.0041 134.329 81.8277 133.66C80.1571 131.99 79.9231 133.255 78.8369 132.686C78.5201 133.401 78.1392 134.099 77.7844 134.799C78.2927 137.231 77.1325 137.69 79.0317 140.559C79.6151 140.703 80.304 140.905 80.8906 140.753C81.6209 140.562 82.7583 138.492 82.5994 137.817C82.0802 137.68 81.1584 137.55 81.4348 136.849C81.7722 136.554 81.8419 136.51 82.2587 136.356L83.0424 136.066C83.5267 136.195 83.9479 136.267 84.3691 136.532C84.6031 137.277 83.8314 137.341 83.7063 137.681C83.4462 138.39 84.1068 141.188 83.284 141.424C82.9379 141.284 82.8584 141.063 82.6582 140.74C81.486 141.547 79.9884 142.104 78.728 141.229C76.548 139.715 76.2541 135.113 77.5482 132.969C78.0794 132.089 78.8292 131.878 79.7097 131.696Z" fill="black"/>
<path d="M119.77 111.992C120.163 112.127 122.412 114.002 122.462 114.492C121.438 115.238 119.744 112.812 118.012 115.433L117.937 115.549C117.95 116.101 117.944 116.687 117.948 117.243C118.903 118.332 120.927 120.923 122.357 120.987C124.943 121.1 125.54 118.599 123.954 116.832C123.556 116.758 123.275 116.992 122.7 117.1C122.352 116.978 122.496 117.08 122.275 116.754C122.293 116.433 123.106 115.085 123.37 114.898C123.769 114.736 123.846 114.707 124.267 114.632C124.611 114.79 124.495 114.665 124.629 115.016C124.61 115.09 124.59 115.165 124.572 115.24C124.175 116.856 127.42 117.448 126.915 118.864C126.575 118.974 126.47 118.797 126.204 118.837C126.058 118.86 125.071 121.305 123.689 121.816C122.801 122.144 121.937 121.892 121.125 121.483C119.304 120.565 117.583 119.024 116.982 117.014C116.21 114.427 117.95 114.285 119.136 113.133C119.405 112.871 119.581 112.328 119.77 111.992Z" fill="black"/>
<path d="M103.002 125.456C103.39 125.631 103.369 125.626 103.656 125.948C103.772 126.752 102.069 126.998 102.127 127.607C102.285 129.271 104.441 133.009 105.164 134.334C105.763 133.947 106.846 132.977 107.418 133.616C107.514 134.029 107.494 134.067 107.431 134.497C107.314 134.644 102.336 136.869 102.186 136.872L101.879 136.533C101.902 136.339 101.937 136.157 101.97 135.964C102.321 135.58 103.929 135.199 103.747 134.528C103.255 132.731 101.995 129.764 100.835 128.372C100.787 127.821 100.749 128.039 101.15 127.5L101.047 127.383C100.388 127.973 99.2679 129.148 98.3395 128.869L98.2285 128.613C98.3471 127.326 98.7901 127.417 99.8154 126.922C100.776 126.457 102.258 126.168 103.002 125.456Z" fill="black"/>
<path d="M71.3554 0.142439C72.0787 0.108046 74.2363 -0.102447 74.7979 0.10304C75.291 0.604566 75.1538 2.51892 75.18 3.41324L73.1969 3.47528C72.0943 3.58749 70.8154 3.64093 69.6811 3.73823C69.6376 2.60414 69.4786 1.44523 69.3828 0.302976L71.3554 0.142439Z" fill="black"/>
<path d="M123.485 15.3672C123.806 15.5403 127.234 18.4375 127.796 18.8981C126.967 19.8164 126.468 20.4899 125.542 21.351C125.462 21.4351 125.522 21.3809 125.325 21.4628C124.13 20.6676 122.718 19.1905 121.315 18.2162C122.132 17.2371 122.866 16.4858 123.485 15.3672Z" fill="black"/>
<path d="M153.385 71.312L153.697 71.2871C154.132 71.7847 154.091 76.0736 154.095 76.9452L151.16 76.9814C150.916 76.9972 151.009 77.0052 150.774 76.915C150.587 75.3081 150.546 73.2673 150.366 71.5035C151.31 71.4804 152.431 71.3761 153.385 71.312Z" fill="black"/>
<path d="M109.571 7.19678C109.794 7.33892 110.779 7.74293 111.089 7.88725C112.269 8.4396 113.444 9.00186 114.615 9.5737C114.117 10.9158 113.768 11.362 112.901 12.5328L112.766 12.654C111.273 11.7295 109.7 11.0777 108.109 10.326C108.735 9.2917 109.136 8.31803 109.571 7.19678Z" fill="black"/>
<path d="M86.2055 0.419434C88.0633 0.703066 90.0551 1.11067 91.9031 1.48746C91.3546 2.30299 91.2349 3.58075 91.1108 4.55267L91.0237 4.69318C90.3054 4.78776 86.5603 4.10731 85.7788 3.8547C85.9464 2.71298 86.089 1.56757 86.2055 0.419434Z" fill="black"/>
<path d="M150.642 55.1685L150.794 55.1976C151.218 55.7245 152.032 59.7634 152.196 60.6628C151.258 60.9132 150.092 61.1252 149.128 61.3265L149.006 61.3074C148.812 61.0642 147.804 56.7414 147.626 56.0279C148.628 55.7339 149.634 55.4474 150.642 55.1685Z" fill="black"/>
<path d="M134.252 122.828C135.323 123.468 136.11 124.028 137.046 124.841C136.129 126.103 134.478 127.875 133.38 129.051C133.375 129.054 133.372 129.059 133.365 129.06C133.009 129.092 131.161 127.142 130.749 126.781C132.232 125.325 132.96 124.439 134.252 122.828Z" fill="black"/>
<path d="M66.6425 0.558594L66.8586 0.716736C67.1608 1.90373 67.2848 2.95837 67.455 4.17061C65.9212 4.26726 63.5174 4.91506 62.122 4.92333L61.9642 4.74701C61.8592 3.69977 61.6367 2.66766 61.3008 1.67027C62.3474 1.4897 65.0623 0.844622 66.0198 0.889028C66.2431 1.11976 66.229 1.14055 66.524 1.24689L66.6362 1.14305L66.6425 0.558594Z" fill="black"/>
<path d="M5.34711 48.9912C5.78388 49.0971 7.76844 49.9504 8.59604 50.2033C7.51963 52.2036 7.30435 53.1998 6.62237 55.4013C5.82753 55.0708 4.30107 54.6961 3.42188 54.4534C3.90131 52.9769 4.60135 50.1963 5.34711 48.9912Z" fill="black"/>
<path d="M94.132 1.90039C94.8383 2.10838 96.8943 2.32649 97.309 2.7514L97.2447 3.34587C97.4809 3.64115 97.3275 3.52741 97.7759 3.61361L97.9054 3.50085C97.8455 3.2268 97.8031 3.12068 97.8281 2.84151C98.1057 2.78394 99.329 3.14746 99.7186 3.24443L99.0961 5.22126L98.6509 6.63093C96.7844 6.10154 95.3085 5.70559 93.4082 5.33075L94.132 1.90039Z" fill="black"/>
<path d="M150.77 79.4966C151.949 79.5412 152.909 79.5554 154.094 79.5292C154.06 81.7169 153.776 83.0882 153.593 85.2041C152.44 85.1105 151.387 84.9559 150.18 84.8743C150.354 83.0784 150.55 81.2859 150.77 79.4966Z" fill="black"/>
<path d="M77.9522 0.00139172C79.477 -0.0179815 80.992 0.169981 82.5005 0.249433C82.8096 0.265759 83.2864 0.201979 83.6803 0.221679C83.5432 1.25172 83.4725 2.23551 83.3941 3.26926L83.3571 3.44688C82.9283 3.73596 78.6607 3.40443 77.9239 3.34338C77.8967 2.22942 77.9293 1.11546 77.9522 0.00139172Z" fill="black"/>
<path d="M36.3326 11.7183C36.6049 12.0175 36.6872 12.2336 36.8654 12.5911L36.7178 12.9211C37.5246 13.6213 37.529 13.6662 38.0064 14.629C36.2203 15.7458 35.3288 16.3846 33.6915 17.679C32.8463 16.7471 32.3596 15.8345 31.5278 14.8889C32.4053 14.2139 35.4436 12.1585 36.3326 11.7183Z" fill="black"/>
<path d="M58.7383 2.27148L58.8987 2.31208C59.1482 2.96424 59.4907 4.73613 59.7035 5.5461C57.8776 5.99582 56.312 6.397 54.5291 6.97972C54.141 5.90385 53.7756 4.82004 53.4331 3.72883C55.2366 3.1325 56.9831 2.79706 58.7383 2.27148Z" fill="black"/>
<path d="M129.603 20.7202C130.157 20.8453 132.921 23.918 133.604 24.6004C132.81 25.1249 131.856 26.0933 131.145 26.7767L131.051 26.8498C130.757 26.7965 130.639 26.5551 130.394 26.2632C129.463 25.1552 128.386 24.2386 127.308 23.2754C128.12 22.0886 128.525 21.7163 129.603 20.7202Z" fill="black"/>
<path d="M102.072 4.16016C103.1 4.54446 106.615 5.61228 107.263 6.20697C107.259 6.22656 106.125 8.71187 105.976 9.07344L105.932 9.14135C105.65 9.25727 101.455 7.59552 100.75 7.37632C101.5 6.14493 101.665 5.5559 102.072 4.16016Z" fill="black"/>
<path d="M95.4478 147.792L95.6633 147.862C96.0878 148.883 96.1052 149.903 96.5536 150.944C95.451 151.326 92.8727 151.79 91.6656 152.024C91.2597 152.085 91.1976 152.153 90.8494 152.022C90.6328 151.026 90.5 149.864 90.3574 148.843C92.0662 148.552 93.764 148.202 95.4478 147.792Z" fill="black"/>
<path d="M144.394 39.8979C144.945 40.4464 146.587 44.2615 146.951 45.1493C146.072 45.4791 144.981 45.9914 144.109 46.3822L143.991 46.3978C143.789 46.2402 141.955 42.3772 141.602 41.7788C142.445 41.092 143.47 40.5052 144.394 39.8979Z" fill="black"/>
<path d="M29.3622 16.5024C30.0651 17.0976 30.9967 18.2814 31.604 19.0106C30.6588 20.1261 28.8057 21.2711 27.5852 22.4797C26.9393 21.7746 25.9158 20.8301 25.1943 20.0949C26.26 18.9473 28.1036 17.5384 29.3622 16.5024Z" fill="black"/>
<path d="M129.052 128.699C129.424 128.821 131.03 130.569 131.45 131.009C130.312 132.254 128.618 133.593 127.322 134.846C127.192 134.763 127.216 134.796 127.126 134.663C126.457 133.688 125.87 133.077 124.996 132.283C126.595 131.168 127.508 129.907 129.052 128.699Z" fill="black"/>
<path d="M0.106568 73.0688L3.4147 73.2416C3.31011 75.0748 3.32502 76.9183 3.3235 78.7553C2.23577 78.7401 1.10233 78.776 0.0114446 78.7945C-0.0245809 76.8041 0.0291844 75.052 0.106568 73.0688Z" fill="black"/>
<path d="M140.129 33.0439C140.531 33.4174 142.873 36.996 143.088 37.621C142.711 38.2463 141.056 39.0446 140.35 39.4331C140.116 39.3516 138.678 36.5384 138.203 36.1412C138.103 36.0574 137.452 35.1451 137.321 34.9706C138.448 34.2085 139.005 33.9373 140.129 33.0439Z" fill="black"/>
<path d="M0.899022 64.7891C1.58819 64.98 3.39022 65.2106 4.19726 65.3313C4.01604 67.1316 3.7644 68.9099 3.58885 70.7487C2.49198 70.6643 1.39446 70.5888 0.296387 70.5223C0.41502 68.6129 0.69876 66.7002 0.899022 64.7891Z" fill="black"/>
<path d="M116.686 11.0278C117.278 11.1507 117.87 11.6533 118.385 12.0145C117.93 11.8309 117.628 11.6078 117.253 11.7525C117.12 12.0828 117.126 12.0616 117.122 12.4187C117.466 12.5226 118.029 12.2437 118.371 12.1949C119.364 12.0535 120.596 13.4407 121.522 14.0158C121.107 14.5213 120.685 15.0707 120.277 15.5871C119.992 16.0888 119.743 16.4861 119.428 16.9664C117.546 15.4158 117.188 15.2428 115.027 14.0109C115.545 12.8739 115.996 12.0628 116.686 11.0278Z" fill="black"/>
<path d="M17.9213 27.8164C18.7172 28.6227 19.4089 29.3716 20.3302 30.0374C19.3645 31.0583 17.7622 33.7933 16.8896 34.1436C16.0372 33.5349 15.2755 32.9744 14.3628 32.4513C15.0116 31.407 17.0006 28.472 17.9213 27.8164Z" fill="black"/>
<path d="M32.1618 134.766C33.6156 135.416 35.3504 137.135 36.7293 137.86C35.7738 138.984 35.4006 139.375 34.786 140.671C34.5326 140.52 34.0682 140.052 33.7234 139.822C32.4741 138.987 31.3015 138.225 30.1128 137.298C30.7513 136.586 31.5464 135.532 32.1618 134.766Z" fill="black"/>
<path d="M149.879 87.2392C150.712 87.2261 152.326 87.507 153.242 87.6201C152.972 89.4595 152.646 91.2902 152.264 93.1089C151.816 93.1709 149.586 92.6169 148.994 92.4754C149.33 90.6676 149.652 89.0655 149.879 87.2392Z" fill="black"/>
<path d="M8.78987 41.5918C9.24079 41.8191 9.80522 42.088 10.2379 42.3363C10.8441 42.6841 10.3595 42.5384 10.4946 43.0052C11.022 42.7988 11.172 42.6818 11.6438 43.0402C11.5318 43.5255 9.92135 46.7053 9.53824 47.724C9.47816 47.8836 9.52943 47.7974 9.33602 47.9466C8.81142 47.8244 7.21629 46.9427 6.31348 46.6521C7.23871 44.4514 7.6302 43.6491 8.78987 41.5918Z" fill="black"/>
<path d="M116.675 138.519C116.731 138.515 116.872 138.55 116.935 138.563C117.465 139.248 118.15 140.523 118.608 141.314C117.131 142.282 115.681 142.968 114.078 144.057L113.991 144.092C113.538 143.95 112.501 141.739 112.208 141.183C113.795 140.427 115.137 139.392 116.675 138.519Z" fill="black"/>
<path d="M38.6969 139.101C40.1558 139.73 41.5651 140.871 43.4974 141.726C43.0365 142.502 42.452 144.245 41.6682 144.606C41.5498 144.66 41.2892 144.475 41.135 144.394C40.5935 144.107 39.407 143.478 39.0211 143.081C39.0699 142.851 39.0946 142.707 39.1221 142.476L38.9502 142.287H38.7724L38.5688 142.774L38.4193 142.812C37.8728 142.551 37.4243 142.265 36.9097 141.951C37.5472 141.064 38.1315 140.042 38.6969 139.101Z" fill="black"/>
<path d="M123.198 133.963C123.442 134.148 124.978 136.067 125.286 136.429C123.554 137.829 122.769 138.442 120.874 139.767L120.751 139.718C120.227 138.828 119.394 137.946 118.755 137.039C120.328 136.082 121.724 135.058 123.198 133.963Z" fill="black"/>
<path d="M45.7022 142.838C45.8552 142.886 47.0858 143.564 47.3781 143.703C48.4144 144.195 49.3752 144.563 50.4465 144.971C49.9645 145.937 49.7452 147 49.2653 147.988L49.1161 148.014C47.0525 147.329 45.9028 146.656 44.0024 145.788C44.5898 144.808 45.0118 143.665 45.7022 142.838Z" fill="black"/>
<path d="M109.884 142.328C110.436 142.48 111.328 144.614 111.65 145.214C110.063 145.868 108.348 146.946 106.886 147.434C106.604 147.502 106.702 147.499 106.427 147.456C106.072 147.036 105.7 145.483 105.298 144.692L105.226 144.553C106.928 143.852 108.237 143.099 109.884 142.328Z" fill="black"/>
<path d="M69.4915 13.381C70.0804 13.3032 71.2307 13.3368 71.6581 13.7818L71.6503 14.0319C71.3919 14.4125 71.0498 14.5099 70.621 14.7106C70.8949 17.0004 71.3797 19.2571 71.5198 21.5725C71.5705 22.4108 72.878 24.6921 71.2601 24.9023C69.7882 24.3502 68.2552 20.7275 67.3315 19.3806C66.8237 18.6401 66.2072 17.8807 65.6394 17.1825C65.6884 18.7287 66.2274 23.1307 66.8957 24.4321C67.2617 24.6583 67.7195 24.5423 68.1807 24.6032C68.42 24.8451 68.3404 24.6984 68.3731 25.0831C68.0289 25.6797 65.8209 26.2535 65.0834 26.2219C64.6602 26.2038 64.4984 26.0065 64.2527 25.71C64.568 24.9917 64.9885 25.095 65.6104 24.6693C66.0256 23.5141 64.4252 17.8414 64.0234 16.4168C63.9792 16.26 62.5293 16.0726 62.436 15.093C62.8763 14.021 64.3557 14.2746 65.3003 14.3365C66.772 15.9544 68.3137 19.4781 69.5706 21.4101C69.9378 21.9745 70.4625 22.3895 70.9347 23.0178L71.0296 23.1457C70.7466 19.9359 70.0253 17.8729 69.2275 14.8588C68.5038 14.8866 68.1068 15.0569 67.6285 14.4816L67.6586 14.2213C68.2034 13.5181 68.6057 13.553 69.4915 13.381Z" fill="black"/>
<path d="M40.9553 24.2378C41.2769 24.361 41.2658 24.3389 41.4714 24.6107C41.5117 25.0072 41.1434 25.5581 40.9414 25.9574C41.4895 27.0545 45.5458 31.9791 46.4042 32.7381C47.0191 32.9395 47.4151 32.3068 48.0244 32.6712C48.006 33.1625 45.8431 35.7149 44.7634 35.1722C44.5151 34.4112 45.3391 33.9784 45.8575 33.6508C42.7697 30.6035 43.9916 28.7605 39.8785 33.0962C40.5947 34.242 41.1096 35.314 42.2093 36.0946C42.75 35.9658 43.6463 35.6194 43.9304 36.2381C43.7461 36.8681 42.1739 38.0737 41.5886 38.6072C41.3176 38.7603 41.3039 38.7562 40.9993 38.8369C40.6376 38.7428 40.7725 38.8421 40.5712 38.5422C40.5156 37.7664 40.7047 37.5704 41.1425 36.9235C40.2512 35.4057 39.41 34.4483 38.3263 33.0792C37.8123 32.4296 37.2979 31.5653 36.7699 30.8842C35.8703 29.7231 35.3056 30.4719 34.2892 30.3554L34.1227 30.1198C34.1078 29.9385 34.0566 29.7187 34.1948 29.5754C34.776 28.9729 36.1307 27.6799 36.9065 27.5276L37.0843 27.6536C37.1685 28.1442 36.889 28.9059 36.8277 29.2538C36.7385 29.7609 38.3086 31.3503 38.7432 31.9016C39.5377 31.5849 40.2043 31.1554 40.9229 30.7077C43.1677 29.3087 41.1859 27.7637 39.9633 26.5603C39.3931 26.8067 38.7156 27.2217 38.1167 26.9453L38.0892 26.7122C38.5377 25.877 40.1293 24.6786 40.9553 24.2378Z" fill="black"/>
<path d="M118.436 28.7461C119.745 28.8861 122.598 31.3777 121.423 32.3823C121.174 32.4353 120.418 32.3913 120.356 32.4416C119.825 32.8764 118.954 34.4812 119.423 35.0952C120.319 35.1845 121.549 34.5811 122.589 34.3028C122.228 33.8412 121.621 33.2557 122.139 32.7212C123.382 32.447 126.688 35.4059 124.706 36.0303C124.199 35.9738 123.805 35.6743 123.354 35.405C121.706 35.8906 119.364 36.4236 117.996 37.37C117.7 37.5746 117.073 38.3299 116.811 38.6397C116.362 39.0487 115.883 39.386 115.698 39.9476C115.891 40.6721 117.383 41.1 116.903 42.2874C115.784 43.1255 114.476 40.4834 113.554 39.8518C112.892 39.3975 111.385 38.5453 111.859 37.6742C113.124 36.8903 113.193 38.645 114.495 38.9183C115.108 38.8513 116.509 37.2396 117.336 36.6163C117.815 35.0394 118.882 32.368 119.166 31.0999C118.685 30.0609 117.862 29.8892 118.436 28.7461Z" fill="black"/>
<path d="M106.148 20.4995C107.493 20.8899 112.547 23.7557 113.412 24.6963C113.581 25.4091 112.879 27.907 112.078 28.2522C111.664 28.1688 111.721 28.1197 111.349 27.7991C111.591 27.2597 112.381 25.7198 111.901 25.2146C111.036 24.311 109.634 23.4507 108.442 23.0751C107.843 22.8862 106.944 24.3894 106.656 24.8225C106.241 25.4436 105.964 25.8092 106.563 26.3817C108.097 27.8459 108.464 25.5373 109.472 25.4624L109.605 25.6214C109.739 26.6502 109.167 27.3096 108.635 28.1376C108.369 28.8222 107.62 31.0525 106.539 30.1535C106.44 29.5583 107.13 28.5898 106.998 28.3625C105.501 25.8038 103.795 29.8324 103.467 30.4513C104.218 30.8399 104.634 31.0503 104.567 31.981C103.972 32.8881 103.286 31.9946 102.691 31.6541C102.012 31.2662 101.332 30.9335 100.674 30.507C100.497 30.1744 100.564 30.3514 100.589 29.8914C101.157 29.0526 102.385 29.9907 102.616 29.6005C103.92 27.3865 106.076 24.9436 106.847 22.4551C106.994 21.9813 106.272 21.4933 106.014 21.2288C105.927 20.8108 105.94 20.9616 106.148 20.4995Z" fill="black"/>
<path d="M78.8868 12.8444C79.8348 12.819 81.2301 12.6946 82.1106 13.0743C82.4991 13.2414 82.8235 13.78 82.5851 14.221C82.1868 14.4614 81.5555 14.4702 81.0113 14.614C80.712 15.0662 80.6881 16.5978 80.6206 17.1423C80.5662 17.5871 80.9232 17.8309 81.2562 18.212C81.4184 17.9717 81.7917 17.3938 82.0311 17.1451C82.2292 16.9464 83.9652 15.3337 83.9129 15.1377C83.3317 12.9775 85.1232 12.996 87.7462 14.3957C86.8331 14.6512 86.0853 14.8718 85.195 15.1907C84.7368 15.69 83.5494 17.5006 83.0901 18.1666C83.421 19.2853 83.8237 20.3786 84.1763 21.4917C84.4822 22.4555 84.5083 23.1071 85.0089 23.9914C85.2952 24.1938 85.7044 24.3833 86.0266 24.546C86.3662 24.6875 86.3944 24.6325 86.5708 24.8879L86.377 25.0225C85.6522 25.0423 83.3426 25.2281 83.126 24.3968C83.3851 23.9698 83.52 23.9857 83.9859 23.7144C83.778 22.5756 82.7092 19.2751 81.4935 19.0778C80.2832 19.4166 80.3801 22.5244 80.3855 23.5075C80.9079 23.6679 81.2344 23.6851 81.4477 24.2075C81.0298 24.7625 78.1521 24.9845 78.0259 24.186C78.3012 23.5983 79.5561 22.8052 79.5529 22.4115C79.5257 19.8822 79.9088 17.3816 79.9893 14.8605C80.0144 14.066 78.286 14.3766 78.311 13.5024C78.5461 13.1178 78.5374 13.1325 78.8868 12.8444Z" fill="black"/>
<path d="M28.341 35.2075C29.2531 35.3416 32.3573 37.1909 31.9683 38.0933C31.225 38.4362 29.9282 37.9398 29.1226 37.7151C28.9447 37.7794 28.7688 37.8489 28.5951 37.9239C27.4638 38.4252 26.9387 39.4054 26.543 40.4972C28.3177 43.3286 34.116 49.0439 34.6574 42.1488C34.0811 40.8683 33.2482 40.342 32.92 39.4871C33.2423 39.218 33.8483 38.9539 34.2653 39.0974C34.9702 39.34 34.9938 40.2821 35.291 40.8485C35.579 41.3976 35.8958 41.9449 36.1898 42.5026C35.8074 45.7267 34.5719 46.7327 31.2934 46.1006C29.3925 45.7976 28.6599 44.8639 27.4439 43.5995C25.9919 42.0898 25.7837 41.8411 25.0967 39.8557C25.4688 38.9447 25.7825 37.871 26.6237 37.3929C28.4527 36.3533 27.5889 36.0789 28.341 35.2075Z" fill="black"/>
<path d="M56.0143 16.7432C56.6227 17.434 55.183 17.8859 55.2856 18.7864C55.4137 19.9095 55.9487 20.8402 56.3807 21.8758C56.6989 22.4411 57.1793 24.1184 57.651 24.5068C58.7236 25.3896 57.6216 25.6898 57.6457 26.2238L57.976 26.3767C58.2574 27.064 56.7627 28.7971 56.1692 29.105C51.8726 31.3335 50.7369 24.4896 49.4154 21.8758C48.7399 20.5394 47.5219 21.2711 47.1646 20.54C47.5129 19.8907 48.4677 19.9135 49.0213 19.3404C49.4866 19.0471 49.8745 18.8585 50.4302 18.9093C51.5151 19.6324 50.0063 20.1521 50.3652 21.7233C50.831 23.7627 52.4777 25.5619 52.9029 27.2062C53.6141 27.7562 55.6779 28.7635 56.5161 28.1995C56.6057 27.7581 56.4859 28.2445 56.1535 27.7264C56.6267 26.9159 56.8018 26.6839 57.0164 25.7866C56.1141 23.8695 55.3221 20.9445 53.9183 19.2201C53.6762 18.9641 53.3277 18.994 53.0243 19.0216C52.5052 19.0685 52.4368 19.1183 52.1048 18.779C51.973 18.3121 51.9363 18.5087 52.0912 18.152C53.2348 17.1615 54.6116 17.23 55.8752 16.7926L56.0143 16.7432Z" fill="black"/>
<path d="M93.9439 15.2764C94.9126 15.359 98.0906 16.4759 98.7992 17.0358C98.7937 17.3686 98.748 17.2611 98.8884 17.5206C99.4391 17.4693 98.8144 17.4355 99.2889 17.0264C100.154 17.0479 100.694 17.9692 99.9061 18.5682C98.9439 18.7014 98.12 17.7631 97.2776 18.2991C97.0588 18.6882 94.5752 25.9802 94.6013 26.2969C95.0965 27.246 97.012 26.6971 97.0175 27.7714C96.7813 28.2736 96.704 28.2949 96.2458 28.6458C94.3041 27.6723 91.8281 27.3243 89.9571 26.5189L89.918 26.2967C90.0638 25.7834 90.3424 25.5419 90.6973 25.1355C91.138 25.6198 91.6071 26.0868 92.3309 26.0639C92.664 26.0542 92.9796 25.9059 93.1994 25.6548C93.8753 24.8827 95.0976 20.2434 95.6004 19.1083C96.7682 16.471 93.2843 17.4324 93.1853 16.1697C93.3551 15.7347 93.5825 15.5986 93.9439 15.2764Z" fill="black"/>
<path d="M23.2388 21.8062C23.6683 21.9427 25.1223 23.7265 25.659 24.2455C24.7812 25.0097 22.8288 27.1352 21.9999 28.0431C21.2488 27.2724 20.2529 26.6341 19.3911 25.8917C20.0709 24.968 21.2968 24.0014 22.1152 23.1345C22.5284 22.697 22.8515 22.2684 23.2388 21.8062Z" fill="black"/>
<path d="M20.838 123.844C21.4288 124.587 22.0126 125.348 22.6614 126.04C23.2593 126.704 24.2328 127.399 24.2939 128.09C23.9318 128.611 22.9285 129.189 22.1532 130.213C21.3965 129.353 20.6425 128.854 20.0856 128.234C19.5273 127.447 18.9212 126.825 18.248 126.139C19.2724 125.372 20.0042 124.451 20.838 123.844Z" fill="black"/>
<path d="M148.091 47.4009C148.749 49.1933 149.363 50.8679 149.975 52.6837C148.675 53.0405 148.098 53.2368 146.889 53.8307C146.749 53.7285 145.248 49.4006 144.999 48.7463C145.966 48.3374 147.17 47.8651 148.091 47.4009Z" fill="black"/>
<path d="M11.8487 111.089C11.9072 111.103 11.9656 111.116 12.0241 111.129C12.5512 112.163 13.9181 114.785 14.5733 115.499L14.5599 115.643C13.6227 116.242 12.7954 116.775 11.8951 117.435L11.3747 116.709C10.4308 115.408 9.87136 114.048 8.96289 112.772C10.0405 111.948 10.6059 111.671 11.8487 111.089Z" fill="black"/>
<path d="M12.8668 34.3872C13.144 34.5039 15.2515 36.0597 15.7225 36.3637C15.1759 37.0374 13.2432 40.1071 12.8851 40.8445C11.9572 40.2779 10.8465 39.8201 9.86279 39.3055C10.538 38.2956 12.4998 35.3038 12.8668 34.3872Z" fill="black"/>
<path d="M2.35958 81.1181C2.80299 81.0691 2.91847 81.0299 3.33924 81.1344C3.53264 81.5501 3.77796 85.6294 3.88615 86.4435C3.17903 86.5643 2.30778 86.6372 1.58172 86.7145C1.21972 86.7918 1.10783 86.8397 0.735825 86.7798C0.408984 86.3325 0.166274 82.0214 0.0991211 81.1627C0.852825 81.1649 1.60653 81.1496 2.35958 81.1181Z" fill="black"/>
<path d="M50.9885 4.65674C51.4943 5.36604 52.0887 7.07806 52.3245 7.90882C50.6604 8.38292 48.9564 9.18441 47.2429 9.7533C46.9456 9.1068 46.3489 7.90523 46.2354 7.25819C46.3641 7.25775 46.4747 7.28605 46.5994 7.31696C46.8939 7.03801 46.9975 6.57098 47.1329 6.17242C47.9712 5.74273 49.9719 5.07294 50.9885 4.65674Z" fill="black"/>
<path d="M152.572 63.2373L152.695 63.2967C153.027 64.5861 153.332 67.3261 153.486 68.6946C152.182 68.7558 151.59 68.8999 150.308 69.1965C150.106 69.0083 149.549 64.5118 149.398 63.8368L152.572 63.2373Z" fill="black"/>
<path d="M145.988 102.317C147.217 102.786 147.892 102.986 149.144 103.564C148.731 104.521 148.412 105.531 147.967 106.503C147.617 107.267 147.247 107.908 146.889 108.658C146.028 108.133 144.774 107.594 143.813 107.299C144.787 105.894 145.453 103.949 145.988 102.317Z" fill="black"/>
<path d="M139.114 116.399C139.165 116.593 139.083 116.861 139.117 117.142L139.293 117.204L139.648 116.917C139.908 116.955 141.494 117.88 141.936 118.102C140.835 119.671 139.887 120.869 138.857 122.554C138.763 122.656 138.719 122.655 138.583 122.722C137.816 122.518 136.731 121.244 135.938 120.73C136.95 119.535 138.004 117.806 139.114 116.399Z" fill="black"/>
<path d="M148.4 94.9614C149.327 95.0986 150.685 95.4458 151.63 95.6634C151.517 96.1848 151.356 97.2242 151.086 97.6182C150.808 97.4603 150.817 97.4418 150.506 97.407C150.329 97.6617 150.37 97.5235 150.382 97.8337C150.682 97.9523 150.55 97.9 150.968 97.7967C151.13 98.2755 150.389 99.6654 150.143 100.203C150.08 100.569 150.056 100.649 149.944 100.985C149.746 101.092 147.179 100.242 146.786 100.13C146.977 99.2997 147.421 98.2788 147.697 97.4549C147.98 96.6081 148.18 95.8278 148.4 94.9614Z" fill="black"/>
<path d="M4.07506 88.8423C4.22199 88.9674 4.25235 89.0012 4.29099 89.2493C4.56766 91.0278 4.88579 92.5384 5.42704 94.2646C4.63525 94.3691 2.77346 94.9971 2.27183 94.898L2.14209 94.6259C1.53619 92.9237 1.24134 91.1399 0.983398 89.3571C1.75212 89.3016 2.86227 89.0317 3.49201 89.0687C3.59813 89.3168 3.61641 89.368 3.76585 89.59L4.00605 89.5497C4.16615 89.2711 4.09661 89.2276 4.07506 88.8423Z" fill="black"/>
<path d="M26.1513 129.671C26.3003 129.727 26.5221 129.887 26.6482 129.995C27.9828 131.13 28.7418 132.116 30.2305 133.116C30.1264 133.436 28.5391 135.289 28.1894 135.744C26.9924 134.969 25.1815 133.119 23.9927 132.06C24.5767 131.58 25.5487 130.33 26.1513 129.671Z" fill="black"/>
<path d="M87.8311 149.326L87.9226 149.349C88.0793 149.641 88.3927 152.142 88.4733 152.652C86.8755 153.003 85.0623 153.122 83.4276 153.253C83.138 153.244 83.2599 153.3 83.039 153.127C82.8899 152.416 82.8518 150.756 82.8115 149.978C84.5529 149.817 86.1115 149.688 87.8311 149.326Z" fill="black"/>
<path d="M135.173 26.4995C135.684 26.7643 137.466 29.2865 137.774 29.8628L137.713 29.9931C137.265 30.0939 136.757 30.0221 136.289 29.9903C136.628 30.1723 137.39 30.646 137.719 30.635C137.836 30.4881 137.926 30.3797 138.055 30.2418C138.429 30.3798 138.565 30.5936 138.833 30.892C138.065 31.2984 137.298 32.1639 136.801 32.1406L136.654 31.6775L136.717 31.5148L136.625 31.3713C136.249 31.5521 136.389 31.4227 136.17 31.7476C136.37 32.0691 136.615 32.3428 136.578 32.6936C136.305 32.8984 136.453 32.816 136.074 32.8601C135.739 32.6202 133.09 29.2972 132.64 28.7451C133.465 27.9748 134.31 27.226 135.173 26.4995Z" fill="black"/>
<path d="M75.0729 150.14C76.786 150.187 78.7038 150.137 80.4321 150.129C80.4854 151.228 80.529 152.327 80.5638 153.426L74.9097 153.448C75.0152 152.232 75.0795 151.371 75.0729 150.14Z" fill="black"/>
<path d="M59.8618 148.05C61.6274 148.404 63.3173 148.739 65.0963 149.017C65.0574 149.524 65.0662 150.225 64.8283 150.638C64.4484 150.814 64.5241 150.745 64.0257 150.667L64.0821 150.816C64.5951 151.068 64.6473 150.986 64.7677 151.502C64.7047 151.762 64.6517 151.917 64.5628 152.171C63.9652 152.348 60.0127 151.411 59.0981 151.226C59.303 150.218 59.6152 149.061 59.8618 148.05Z" fill="black"/>
<path d="M102.861 145.418C103 145.491 103.842 147.913 104.123 148.421C102.758 148.991 100.53 149.868 99.1536 150.221L98.9206 150.241C98.7128 150.034 98.1882 147.86 97.989 147.306L97.9346 147.156C99.3244 146.763 101.416 145.92 102.861 145.418Z" fill="black"/>
<path d="M52.5929 145.758C54.3967 146.44 55.76 146.912 57.6004 147.478C57.2785 148.379 57.0763 149.826 56.7675 150.529L56.5394 150.564C55.6251 150.32 54.4994 150.029 53.6293 149.695C52.7073 149.341 52.2787 149.109 51.3101 148.861C52.0991 147.726 52.2113 147.097 52.5929 145.758Z" fill="black"/>
<path d="M8.47626 104.037C8.86492 104.172 8.957 104.627 8.97822 104.976C8.82421 105.214 8.76882 105.299 8.57498 105.509L8.42793 105.666L8.51773 105.913C8.82574 106.092 8.81486 106.004 9.29048 105.897L9.441 106.015C10.4483 108.741 11.5171 108.532 8.50325 110.04C8.16955 110.2 8.1492 110.213 7.79101 110.294C7.37177 109.906 5.78556 105.853 5.52783 105.134L8.47626 104.037Z" fill="black"/>
<path d="M15.9038 117.718C16.2374 118.008 18.9318 121.621 19.1556 122.054C18.7584 122.428 18.05 123.145 17.5593 123.265L17.3489 123.006L17.1209 123.129C17.038 123.573 17.0077 123.673 16.7709 124.056C16.2341 123.752 13.6866 120.252 13.1694 119.583C14.0211 119.026 14.1217 118.816 15.1596 118.781L15.3371 118.775C15.4438 117.964 15.3882 118.116 15.9038 117.718Z" fill="black"/>
<path d="M5.93648 96.5273C6.29564 96.9747 6.31143 97.7724 6.23459 98.3123L6.21075 98.4679C6.25701 98.4919 6.62183 98.6954 6.63413 98.7378C6.92244 99.7337 7.21565 100.725 7.59441 101.692C6.59528 102.04 5.59201 102.377 4.58482 102.702C4.23893 102.343 3.06065 98.2644 2.79541 97.4873C3.63096 97.3186 5.07938 96.8038 5.93648 96.5273Z" fill="black"/>
<path d="M67.5356 149.55C68.646 149.769 71.3766 149.931 72.6723 150.069C72.6429 150.705 72.644 152.995 72.3414 153.324C70.4222 153.175 68.8439 153.066 66.9404 152.768C67.2011 151.869 67.3452 150.543 67.5356 149.55Z" fill="black"/>
<path d="M3.7222 57.2041C4.34497 57.2834 5.35238 57.5693 5.9942 57.7321C5.5743 59.5926 5.00943 61.2776 4.54077 63.1226C4.23254 62.9713 4.07865 62.9172 3.76051 62.8038C2.8798 62.565 2.31873 62.4449 1.41211 62.407C1.50364 61.5306 2.28042 58.2483 2.79098 57.6192C2.99081 57.7904 2.93127 57.7521 3.14753 57.8669C3.53522 57.6756 3.45348 57.6488 3.7222 57.2041Z" fill="black"/>
<path d="M142.928 109.609L143.452 109.879C143.639 110.187 143.578 110.108 143.568 110.534L143.692 110.598C144.521 109.995 145.068 110.547 145.918 111.006C144.965 112.911 144.228 114.088 143.136 115.906L142.966 115.91C142.591 115.506 141.851 115.015 141.689 114.732C141.934 114.571 141.86 114.648 142.026 114.411C141.736 114.186 141.64 114.182 141.295 114.044L141.158 114.139C141.233 114.281 141.305 114.425 141.373 114.571C140.993 114.594 140.667 114.412 140.289 114.265C141.269 112.6 142.003 111.314 142.928 109.609Z" fill="black"/>
<path d="M43.509 7.94092L43.6132 7.97498C44.0399 8.62333 44.6743 10.1919 44.9479 10.9316C43.9009 11.3671 41.134 12.6966 40.2595 13.2878C39.8861 12.6528 39.7013 12.2677 39.4003 11.5952C38.9388 11.2285 38.7648 10.9569 38.4087 10.4943C40.0209 9.42656 39.8673 9.74055 41.6981 9.65098C42.0166 9.63542 43.2805 9.18461 43.5178 8.86648C43.2834 8.6943 42.4169 8.73794 41.9545 8.65598C42.1926 8.42764 43.1494 8.08643 43.509 7.94092Z" fill="black"/>
</svg>
