<svg width="210" height="210" viewBox="0 0 210 210" fill="none" xmlns="http://www.w3.org/2000/svg">
<rect width="210" height="210" rx="105" fill="#D6CAB9"/>
<path fill-rule="evenodd" clip-rule="evenodd" d="M134.923 44.4479C136.484 42.5188 139.368 42.9407 140.662 45.0391C141.717 46.7521 144.742 54.0569 144.455 55.7918C143.957 55.6675 143.62 55.598 143.117 55.5163C143.105 56.2809 143.006 55.9229 143.513 56.5953C144.113 56.7565 145.023 56.9327 145.331 57.4223C146.261 58.9037 149.421 66.2343 149.285 67.4716C148.669 67.8612 148.848 67.6636 148.448 68.2387L148.666 68.5466C149.15 68.509 149.313 68.5134 149.799 68.5458C150.169 69.4039 151.459 72.0824 151.399 72.7921C150.647 72.7243 150.553 72.5902 149.96 72.8629C150.502 74.8399 152.118 73.8295 152.972 75.9488C152.798 76.8401 152.842 76.5671 152.044 77.3253L152.056 77.8054C154.578 79.3316 155.476 82.2376 156.011 85.1302C156.048 85.322 155.505 85.6429 155.621 86.5672L156.494 86.4042C157.241 86.7952 158.556 89.8401 158.215 90.6048L157.31 90.4823L157.108 90.6985C157.457 91.3804 157.72 91.2594 158.696 91.6157C159.317 92.4131 160.753 97.1708 160.979 98.4738C161.328 100.476 162.643 99.9342 163.334 102.86C163.09 103.8 163.018 103.623 162.216 104.425L162.415 104.719C162.905 104.575 162.725 104.643 163.181 104.456L163.492 104.328C164.512 105.002 164.777 108.041 165.162 109.261C166.192 112.511 169.535 114.277 167.291 117.696C168.27 118.896 167.393 117.127 168.875 118.101C170.376 121.629 173.737 128.796 174.529 132.68C174.692 133.478 173.835 133.475 173.561 134.26C174.61 135.291 174.223 134.2 175.515 135.007C177.827 140.298 183.561 149.63 172.306 147.999C171.826 147.928 169.864 148.125 169.133 148.119C168.524 147.573 168.715 147.668 168.555 146.621C166.688 149.133 164.813 148.187 161.912 148.139C157.546 148.069 153.182 148.04 148.814 148.045C147.95 147.125 147.694 146.75 146.352 146.951C145.466 147.586 144.381 148.589 143.263 148.132L143.618 147.04L143.299 146.873C142.819 147.343 142.53 147.689 142.097 148.198C140.592 148.587 135.784 148.442 134.011 148.425C133.362 148.419 131.64 147.771 130.532 147.735L129.849 148.435L129.327 148.228L129.191 147.384L128.565 148.203C127.077 148.467 107.88 148.415 107.498 148.274C105.359 147.489 102.068 148.365 99.6755 148.479C96.731 148.615 93.8333 148.362 90.896 148.369C88.029 148.377 84.0809 149.159 81.3673 148.243C80.7976 147.555 80.7525 147.422 80.4888 146.563L80.3432 146.702C80.3694 147.419 80.3942 147.478 80.2447 148.168C78.9169 148.499 72.7786 148.701 71.6417 148.236C71.6348 147.91 71.6287 147.584 71.6217 147.261L71.1441 147.218L71.1062 148.094L70.6865 148.423C68.9403 148.493 65.2273 148.789 63.5642 148.258C63.3365 148.186 63.2131 147.543 62.3866 147.275C61.9393 147.786 61.7912 147.93 61.2737 148.372C60.4388 148.481 60.7976 148.584 60.1252 148.26C60.5283 147.379 60.6149 147.662 60.4107 147.056L59.8113 147.093L59.4466 148.091C58.4496 148.747 33.9914 148.433 30.1456 148.583L28.0716 147.428L27.967 147.13L27.8122 146.675C27.4982 145.812 27.1711 144.946 27.5356 144.017C29.4729 139.085 32.1362 134.458 34.3292 129.635C34.8579 128.474 36.2063 127.116 36.7372 125.946C37.4674 124.337 38.0899 122.71 38.8416 121.107L45.0769 108.123C45.9418 106.289 46.8578 106.428 47.7456 104.842C47.43 102.184 50.4357 98.9391 51.0264 96.589C51.7107 93.8682 53.5474 93.6928 53.9897 92.7305C52.4948 90.0241 55.2855 89.1858 56.3599 86.8442C57.0121 85.4228 57.1981 83.8068 58.039 82.4872C58.5382 81.7055 58.9077 82.3062 59.7228 81.5531C59.3561 80.9365 59.3358 80.9798 59.2858 80.2751C60.6586 77.6432 65.5404 66.436 67.2828 65.1353C67.7193 64.8094 67.5067 64.8838 68.0616 64.952L68.3771 65.7836L68.57 65.7626C68.7805 65.0356 68.856 64.6522 69.2406 63.9851L70.4548 63.9394L71.4842 64.4958C72.796 65.6447 83.1761 77.3355 83.592 78.4825L82.9329 79.0013C83.2653 79.582 83.0283 79.3798 83.6301 79.6235L83.9316 78.898C85.0937 79.2517 87.7611 82.6371 87.916 83.876C87.97 84.3091 87.6575 84.4332 87.3522 84.7541C87.5083 85.5652 88.1479 86.4124 88.908 86.7403C89.1265 86.3615 89.2971 85.9792 89.4531 85.5709C92.4168 87.6411 100.228 97.3983 102.096 100.668C102.844 99.0672 103.472 97.7406 104.795 96.53C105.458 96.1804 105.364 93.5463 105.807 93.1883C108.985 90.6141 109.891 86.8067 111.928 83.3849C112.94 81.6229 114.255 79.9712 115.245 78.2025C118.823 71.8118 122.328 65.5818 126.283 59.4076C129.205 54.5917 131.402 48.8004 134.923 44.4479ZM136.881 54.4965C130.613 65.4209 124.153 76.26 117.955 87.2229C117.775 87.4965 117.436 87.7695 117.14 87.9283C115.788 88.6503 114.922 93.6116 114.146 94.4552C112.58 96.1628 109.041 103.13 107.804 104.155C107.228 103.903 107.496 104.027 106.995 103.779C106.818 105.281 106.891 107.324 105.725 108.201C105.026 108.726 103.135 109.495 102.421 109.243C98.2472 107.764 92.6107 97.8351 89.3166 95.4152C88.6324 95.9428 87.5912 96.8839 86.804 97.0407C86.1891 96.7302 86.2268 96.597 85.897 95.9548C85.8502 94.6181 87.3395 93.2871 86.8879 92.7019C82.6489 87.2319 77.539 81.8743 73.1701 76.4371C72.229 75.2661 71.4406 75.0448 70.1653 73.3236C68.7954 76.4465 68.8571 77.2143 66.3111 79.6966C66.7977 80.3069 66.6593 79.9743 66.7779 80.7152C65.149 85.5177 60.6463 90.615 59.2668 95.791C59.0837 96.4759 56.7065 97.8468 57.0461 98.5133C57.2588 99.0746 57.4086 99.7452 57.0724 100.359C53.1577 107.502 49.4912 114.688 46.079 122.089C45.7858 122.725 44.9824 123.023 44.3515 123.355C44.5603 123.948 44.4416 123.734 44.9238 124.187C44.6239 126.078 43.6299 127.349 42.4748 128.688C41.3063 130.043 37.5912 139.693 36.5758 140.583C36.1005 140.322 36.1359 140.329 35.7131 139.99L35.5724 140.375C36.6031 141.522 36.8433 141.584 38.3128 141.655C43.348 141.9 48.2243 141.743 53.2657 141.931C54.0576 143.004 52.6702 142.301 53.8238 143.09L54.4824 143.001L54.5051 142.698L53.9373 142.094C55.2271 141.45 56.492 142.132 57.983 141.388C61.0506 141.36 66.6987 141.165 69.3797 142.129L69.7882 142.274C72.8154 141.719 78.0387 140.827 81.0321 141.63C81.8618 142.693 80.7832 142.753 81.6156 143.326L81.9014 143.201C81.9246 142.708 81.9604 142.22 82.0084 141.731C82.2921 141.583 96.6301 141.348 98.1558 141.367C98.7227 141.728 98.7175 141.715 99.1569 142.218L99.3546 142.107C102.307 140.453 102.507 141.586 105.739 141.473C112.063 141.255 118.388 141.32 124.715 141.446C125.696 142.242 125.312 142.217 126.489 142.092C128.015 141.932 129.891 141.178 131.396 141.179C133.648 141.178 136.508 141.726 138.641 141.941C139.139 141.992 140.942 140.955 142.684 141.488L143.23 142.118C144.883 141.915 145.155 141.226 147.019 141.239C149.457 141.231 151.895 141.049 154.333 141.041C155.177 141.039 156.12 141.661 156.903 141.595C160.033 141.335 163.051 141.048 166.205 141.155C167.931 141.214 169.476 141.161 171.204 141.422C166.62 131.651 163.319 121.406 159.188 111.452C158.452 109.68 157.322 108.107 157.283 106.12C157.208 104.68 155.95 102.999 155.522 101.629C154.005 97.7284 152.178 94.1357 151.137 90.0422C149.789 91.6571 144.428 97.0838 142.368 95.1417C141.716 92.1261 147.773 88.2608 150.198 87.4073C147.826 84.1736 147.205 78.6594 145.742 76.0496C143.778 72.5418 138.822 56.3124 136.881 54.4965Z" fill="#A33B2B"/>
<path d="M75.6643 98.5771C80.7041 101.661 73.4842 104.981 70.9263 106.418C69.8677 105.735 69.5132 105.54 69.2537 104.352C69.843 102.397 73.8131 99.8532 75.6643 98.5771Z" fill="#A33B2B"/>
<path d="M130.909 96.8366L131.18 96.7748L131.428 96.9789C130.23 98.5284 130.431 98.874 129.794 99.8772C129.138 100.91 125.56 100.888 124.188 100.955C123.255 99.9385 122.866 99.169 123.629 97.9357C125.43 96.8082 128.681 96.9446 130.909 96.8366Z" fill="#A33B2B"/>
<path d="M123.409 143.167L123.554 143.371C123.407 144.056 122.415 144.944 121.859 145.565L121.664 145.26C121.834 144.48 122.787 143.76 123.409 143.167Z" fill="#A33B2B"/>
</svg>
